<?xml version="1.0" encoding="UTF-8" standalone="no"?>
<svg
 xmlns="http://www.w3.org/2000/svg"
 viewBox="0 0 235.4627 235.49095"
 version="1.1"
 id="svg2">
 <path
   id="path3338"
   d="M 103.77887,234.65796 C 79.003122,231.82327 54.371262,219.61755 35.654062,200.90035 -10.542199,154.70409 -10.546209,81.798296 35.645062,35.650719 c 46.241097,-46.197456 119.109948,-46.201465 165.258718,-0.0091 34.71644,34.749247 44.10316,84.861781 24.41116,130.323061 -10.7482,24.8135 -35.65779,49.59781 -60.05746,59.75542 -20.40337,8.49394 -40.20154,11.37224 -61.47852,8.93785 z m 33.61902,-2.40824 c 24.11287,-4.14277 45.03694,-15.00299 62.44456,-32.41061 22.01995,-22.01995 33.93643,-50.66028 33.93643,-81.56357 0,-56.318018 -40.66089,-104.401067 -96.38099,-113.9741864 -36.50694,-6.27216 -74.101998,5.8300184 -100.682588,32.4106064 -45.3873608,45.387356 -45.3873608,117.73979 0,163.12715 21.97542,21.97542 49.677258,33.59646 80.682588,33.84669 6.11546,0.0494 15.11546,-0.59688 20,-1.43608 z m -38.61902,-32.23946 0,-13.76528 5.25,-1.83887 c 8.31543,-2.91256 24.37885,-11.28196 35.13174,-18.3044 l 9.88173,-6.45351 5.15565,5.32291 c 6.19048,6.39132 8.87927,13.6747 8.96247,24.27745 0.0945,12.0427 -5.34843,19.907 -15.99542,23.11128 -3.43619,1.03414 -10.59065,1.4157 -26.54509,1.4157 l -21.84108,0 0,-13.76528 z m -56.999998,-8.81215 c -10.31046,-3.72397 -15.00776,-10.32497 -14.88862,-20.92257 l 0.0675,-6 1.36363,5 c 2.60703,9.55917 10.63903,13.51303 27.38904,13.48264 16.30286,-0.0296 30.744588,-4.05895 51.736518,-14.43492 15.09393,-7.46068 35.93626,-21.12776 49.472,-32.44059 33.92448,-28.35323 49.57037,-59.199404 36.17582,-71.321306 -3.07885,-2.786326 -10.39857,-5.562619 -16.81584,-6.378071 -5.86665,-0.745485 -5.92222,-0.781009 -2.5,-1.598432 5.92577,-1.415417 19.20863,-1.343075 24.38393,0.132801 12.75597,3.637712 17.7434,16.725784 12.65239,33.202534 -5.99013,19.386694 -28.13132,43.421534 -58.53632,63.542704 -16.95478,11.22019 -44.23836,25.43536 -60.00001,31.26094 -19.195718,7.09482 -41.031278,9.89422 -50.499998,6.47427 z m 6,-16.31284 c -6.84753,-2.44473 -10.55807,-6.66398 -12.00964,-13.65618 -1.34456,-6.47672 0.0608,-12.84366 4.05078,-18.35164 l 2.79303,-3.85566 -0.87904,-15.87313 c -0.48347,-8.73021 -0.89616,-19.58562 -0.91708,-24.123136 l -0.038,-8.249998 25.03139,0 c 22.950198,0 25.079948,0.1455 25.615558,1.75 5.17312,15.497054 21.79123,37.770974 36.54033,48.976514 l 4.9668,3.7735 -3.80378,3.30198 c -2.09208,1.81609 -9.21425,5.92589 -15.82704,9.13289 -16.36455,7.9363 -15.52326,7.76187 -15.52326,3.21842 l 0,-3.78394 -17.249998,-0.0963 c -15.82744,-0.0884 -23.38736,-0.83276 -28,-2.75697 -1.49491,-0.62363 -1.75,-0.15295 -1.75,3.22907 0,11.05369 11.45193,16.21622 29.43843,13.27084 3.266128,-0.53485 6.120748,-0.79013 6.343588,-0.56728 0.22284,0.22284 -3.28694,1.5715 -7.799528,2.99703 -11.45684,3.61919 -23.66897,4.27508 -30.98249,1.66399 z m 112.264758,-17.85245 -2.15634,-3.8367 9.1958,-6.94202 c 18.50193,-13.96736 41.05854,-38.84153 43.22124,-47.661996 0.89584,-3.65365 2.87872,-2.68598 6.25106,3.050596 l 2.72349,4.63284 0.3124,25.25 0.31241,25.25 -28.09463,0 c -27.39629,0 -28.11345,0.0509 -28.85186,2.04698 -0.68524,1.8524 -0.96221,1.68227 -2.91357,-1.7897 z m -22.88212,-28.50728 c -4.38467,-4.5375 -9.63209,-10.5502 -11.66093,-13.36156 -5.2443,-7.26703 -10.58565,-19.004206 -11.92437,-26.202824 -2.80526,-15.08452 5.552,-27.99939 25.94657,-40.09645 6.96325,-4.130261 20.4848,-10.089176 22.89364,-10.089176 1.06344,0 1.36246,2.304423 1.36246,10.5 l 0,10.5 6.25,0.0094 c 5.08118,0.0076 7.21185,0.561044 11.39327,2.959272 6.90518,3.960419 9.69948,8.589954 9.602,15.908394 -0.0412,3.09262 -0.49087,6.71711 -0.99929,8.05442 -0.83251,2.18982 -0.98839,1.96448 -1.56841,-2.26723 -1.44445,-10.5384 -5.36266,-13.66426 -17.12791,-13.66426 l -7.54966,0 0,10.46923 0,10.46922 11.98002,0.28078 11.98003,0.28077 -7.61742,10.000014 c -4.18958,5.5 -10.36809,13.11688 -13.73002,16.9264 -6.43106,7.28725 -18.21363,17.5736 -20.1298,17.5736 -0.62042,0 -4.7155,-3.7125 -9.10018,-8.25 z M 84.94181,71.033316 C 79.012862,56.426229 66.232102,39.086138 56.407242,32.319498 c -3.0959,-2.132223 -5.46219,-4.043478 -5.25844,-4.247233 0.65418,-0.654178 16.69887,5.555098 21.49391,8.318118 5.6849,3.275774 17.109578,11.593304 19.398998,14.123082 1.58439,1.750737 1.5389,2.272517 -0.76827,8.811499 -1.34881,3.822811 -2.50673,8.300566 -2.57316,9.950566 -0.0664,1.649996 -0.41341,4.016006 -0.77109,5.257786 -0.55531,1.92794 -0.99175,1.41661 -2.98738,-3.5 z M 101.05392,47.7215 C 93.3372,46.086904 88.78848,40.269808 88.78261,32.028411 c -0.003,-4.624532 0.42433,-5.720943 3.60402,-9.240471 6.4861,-7.179337 15.68581,-7.564998 22.31533,-0.935481 6.22917,6.229163 6.10814,15.592767 -0.28159,21.785936 -3.78431,3.667899 -8.51068,5.11168 -13.36645,4.083105 z" />
 </svg>
