<?xml version="1.0" encoding="utf-8"?>
<!-- Generator: Adobe Illustrator 21.1.0, SVG Export Plug-In . SVG Version: 6.00 Build 0)  -->
<svg version="1.1" id="Шар_1" xmlns="http://www.w3.org/2000/svg" xmlns:xlink="http://www.w3.org/1999/xlink" x="0px" y="0px"
	 viewBox="0 0 612 792" style="enable-background:new 0 0 612 792;" xml:space="preserve">
<style type="text/css">
	.st0{fill:#FFFFFF;}
	.st1{fill:#F26805;}
</style>
<g>
	<path class="st0" d="M520,324c0,95,0,190,0,285c-141.7,0-283.3,0-425,0c0-141.7,0-283.3,0-425c141.7,0,283.3,0,425,0
		c0,43,0,86,0,129c-0.4-3.4-1-6.8-1.3-10.3c-0.9-11.3-0.1-22.9-2.8-33.7c-3.2-13.1-8.4-25.9-14.3-38.1
		c-16.2-33.2-43.4-43.7-75.6-41.3c-4.3,0.3-9.6,3-12.4,6.3c-12.6,14.6-9.3,41.9,15,47.2c9.3,2,18.5-3.5,21-12.5
		c1.5-5.7-0.7-11.5-5.8-14.8c-3.4-2.2-6.9-2.5-10.3,0c-3,2.2-3.6,5.2-2.4,8.9c0.5,1.6-0.8,3.7-1.3,5.5c-1.4-0.5-3.4-0.5-4.2-1.5
		c-4.6-5.4-1.9-17,4.6-19.8c4.9-2.1,10.1-2.7,15-0.4c14.7,6.9,27.1,16.4,33.4,32.1c8.4,21.1,5.6,41.7-3,62c-0.4,1-1.3,1.7-2.5,3.2
		c-5.4-7-10.7-13.4-15.6-20.1C440.9,263,419,247.7,392,241c-17.7-4.4-36-6.1-54.1-8.6c-8.7-1.2-11.3-3-13.1-11.5
		c-1-5.1-1.7-10.4-2.5-15.5c-0.4-0.3-0.8-0.6-1.1-0.9c-1.5,2.4-3,4.8-4.4,7.2c-0.4-0.3-0.8-0.6-1.2-1c-1.2-0.9-2.4-1.7-3.8-2.7
		c-3.3,5.6-5.9-0.8-9.5-0.6c0,5.4-0.2,10.7,0,15.9c0.3,7.4,0.2,7.4-7.1,9.1c-21.8,5.3-43.4,11.1-65.2,16.4
		c-5.6,1.4-11.4,2.1-17.2,2.5c-3.1,0.2-5.1,0.9-7,3.5c-7.1,10.1-14.4,20-21.7,29.9c-1.1,1.5-2.5,2.7-3.7,4.1
		c-0.5-0.2-0.9-0.5-1.4-0.7c0.3-1.6,0.4-3.3,1.1-4.6c3.3-6.4,6.7-12.6,10.1-18.9c2.7-5.1,5.4-10.2,8.2-15.6
		c-11.8-3.7-20.7-10.4-28.6-18.8c-2.1-2.3-4.8-4.1-7.5-5.8c-6.6-4.2-11.4-1.9-12,5.9c-0.4,4.6,0.3,9.4-0.3,14
		c-0.4,2.7-1.7,6-3.7,7.5c-8.4,6.2-14.8,13.9-19,23.4c-1.9,4.4-5,6-9.6,6.5c-3.7,0.4-7.3,2-10.7,3.6c-3.7,1.8-4.4,4.8-2.9,8.8
		c3,8,8.9,12.2,17,13.7c5.3,1,8.7,3.8,9.4,9.5c0.2,1.9,1.1,3.7,1.8,6c2-1.3,3.5-2.2,5-3.2c8.6-5.7,17.2-11.5,25.8-17.1
		c1.5-1,3.5-1.4,5.3-2.1c0.3,0.5,0.6,1,0.8,1.5c-1.4,1.5-2.8,3.1-4.3,4.4c-9.6,8.5-19.3,16.9-28.7,25.6c-2.1,2-3.7,5-4.6,7.8
		c-1.6,4.7-2.1,9.8-3.7,14.5c-11.2,32.2-15.4,64.9-7.7,98.6c0.6,2.7-0.4,4.2-3,5.3c-6.8,2.9-13.5,6-20.7,9.3
		c3.3,1.9,5.9,3.4,8.6,4.9c-1.7,2.3-3.4,4.7-4.8,6.7c1.5,0.7,4.4,1.1,5.4,2.7c0.9,1.4-0.3,4.2-0.6,6.9c6.1-2.1,11.8-4.1,17.6-6.1
		c3.1-1.1,5-0.9,6.1,3.2c1.7,6.7,4,13.4,6.7,19.8c19.6,46.4,54.7,75.9,101.8,91.1c13.2,4.3,27.7,5.7,41.7,6.4
		c10.3,0.5,20.8-1.9,31.1-3.6c23.1-3.7,46.3-7.5,68.1-16.7c2.6-1.1,4.1-0.6,5.8,1.7c3.8,5.3,8,10.3,12.8,16.3c0.5-3.7,0.7-5.8,1-8.3
		c2.7,0.3,5.1,0.6,7.9,1c-0.5-2.9-1-5.3-1.5-8.2c2.5,0.4,4.4,0.8,7.3,1.3c-3.2-6.6-6.1-12.3-8.6-18.2c-0.6-1.4-0.4-4.1,0.6-5.1
		c11.4-11.2,23.1-22.2,34.6-33.3c2.4-2.3,4.1-2.6,6.6-0.1c3.3,3.4,7,6.3,11.9,10.7c-2.3-8.1,1.8-7.9,6-7.3c-0.1-2.5-0.2-4.5-0.4-6.9
		c2.4,0.2,4.3,0.3,6.7,0.5c-2.6-3.8-4.9-7.2-7.3-10.6c-2.9-4.1-3.1-7.8-0.4-12.4c11.4-19.4,20.4-40,27.5-61.3
		c2.8-8.5,4.6-17.5,8.4-25.5c11.4-24.2,17.4-49.8,21-76.1C518.6,335.4,519.3,329.7,520,324z"/>
	<path class="st1" d="M520,324c-0.7,5.7-1.4,11.4-2.2,17.2c-3.6,26.3-9.6,51.9-21,76.1c-3.8,8-5.6,17-8.4,25.5
		c-7.1,21.4-16.1,41.9-27.5,61.3c-2.7,4.6-2.5,8.3,0.4,12.4c2.4,3.4,4.7,6.8,7.3,10.6c-2.4-0.2-4.3-0.3-6.7-0.5
		c0.1,2.4,0.2,4.4,0.4,6.9c-4.2-0.6-8.4-0.8-6,7.3c-4.9-4.3-8.6-7.3-11.9-10.7c-2.5-2.5-4.2-2.2-6.6,0.1
		c-11.5,11.1-23.2,22.1-34.6,33.3c-1,0.9-1.1,3.7-0.6,5.1c2.5,5.9,5.4,11.6,8.6,18.2c-2.9-0.5-4.8-0.8-7.3-1.3
		c0.5,2.8,1,5.3,1.5,8.2c-2.8-0.3-5.1-0.6-7.9-1c-0.3,2.5-0.6,4.6-1,8.3c-4.8-6-8.9-11-12.8-16.3c-1.7-2.3-3.1-2.9-5.8-1.7
		c-21.8,9.2-44.9,13-68.1,16.7c-10.3,1.7-20.8,4.1-31.1,3.6c-14-0.7-28.5-2.1-41.7-6.4c-47.1-15.3-82.2-44.8-101.8-91.1
		c-2.7-6.4-5-13-6.7-19.8c-1-4-2.9-4.2-6.1-3.2c-5.8,2-11.5,4-17.6,6.1c0.3-2.8,1.5-5.5,0.6-6.9c-1-1.6-3.8-2-5.4-2.7
		c1.4-2,3.1-4.3,4.8-6.7c-2.7-1.5-5.3-3-8.6-4.9c7.2-3.2,13.9-6.4,20.7-9.3c2.6-1.1,3.6-2.6,3-5.3c-7.6-33.7-3.5-66.4,7.7-98.6
		c1.6-4.7,2.1-9.8,3.7-14.5c1-2.8,2.5-5.8,4.6-7.8c9.4-8.7,19.2-17.1,28.7-25.6c1.5-1.4,2.9-3,4.3-4.4c-0.3-0.5-0.6-1-0.8-1.5
		c-1.8,0.7-3.7,1-5.3,2.1c-8.7,5.6-17.2,11.4-25.8,17.1c-1.5,1-3,1.9-5,3.2c-0.7-2.3-1.6-4.1-1.8-6c-0.7-5.7-4-8.5-9.4-9.5
		c-8.1-1.5-14-5.7-17-13.7c-1.5-4-0.9-7,2.9-8.8c3.4-1.6,7.1-3.2,10.7-3.6c4.6-0.5,7.7-2,9.6-6.5c4.1-9.5,10.6-17.2,19-23.4
		c2-1.5,3.4-4.8,3.7-7.5c0.6-4.6-0.1-9.3,0.3-14c0.6-7.8,5.3-10.1,12-5.9c2.7,1.7,5.4,3.5,7.5,5.8c7.8,8.4,16.8,15.1,28.6,18.8
		c-2.9,5.4-5.5,10.5-8.2,15.6c-3.4,6.3-6.8,12.6-10.1,18.9c-0.7,1.4-0.7,3.1-1.1,4.6c0.5,0.2,0.9,0.5,1.4,0.7
		c1.2-1.4,2.6-2.6,3.7-4.1c7.3-9.9,14.7-19.8,21.7-29.9c1.9-2.7,3.9-3.3,7-3.5c5.8-0.4,11.6-1.2,17.2-2.5
		c21.8-5.3,43.4-11,65.2-16.4c7.3-1.8,7.4-1.7,7.1-9.1c-0.2-5.2,0-10.5,0-15.9c3.6-0.1,6.2,6.3,9.5,0.6c1.5,1,2.6,1.9,3.8,2.7
		c0.4,0.3,0.8,0.6,1.2,1c1.5-2.4,3-4.8,4.4-7.2c0.4,0.3,0.8,0.6,1.1,0.9c0.8,5.2,1.4,10.4,2.5,15.5c1.7,8.5,4.4,10.3,13.1,11.5
		c18.1,2.5,36.4,4.2,54.1,8.6c27,6.7,48.9,22,65.4,44.7c4.9,6.7,10.1,13.1,15.6,20.1c1.2-1.5,2.1-2.2,2.5-3.2
		c8.6-20.3,11.4-40.9,3-62c-6.2-15.7-18.6-25.2-33.4-32.1c-4.9-2.3-10.1-1.7-15,0.4c-6.5,2.8-9.2,14.4-4.6,19.8c0.8,1,2.8,1,4.2,1.5
		c0.5-1.9,1.7-4,1.3-5.5c-1.2-3.7-0.6-6.6,2.4-8.9c3.3-2.5,6.9-2.1,10.3,0c5.1,3.3,7.3,9,5.8,14.8c-2.5,9.1-11.7,14.5-21,12.5
		c-24.3-5.2-27.7-32.6-15-47.2c2.9-3.3,8.1-6,12.4-6.3c32.2-2.5,59.5,8.1,75.6,41.3c5.9,12.2,11.1,25,14.3,38.1
		c2.7,10.8,1.9,22.5,2.8,33.7c0.3,3.4,0.8,6.8,1.3,10.3C520,316.7,520,320.3,520,324z M115.7,473.1c1.5-1.2,3-2.3,4.4-3.5
		c0-0.6,0-1.2-0.1-1.7c-2.8-0.6-5.7-1.3-8.5-1.9c-0.3,1.7-1.4,4-0.7,4.9c0.9,1.3,3.3,1.5,5,2.1c-1.8,1.2-5.5,1.4-3.6,4.9
		c0.8,1.4,2.9,2.1,4.4,3.1c1.4-2.2,2.8-4.5,4.3-6.7C119.2,473.9,117.4,473.5,115.7,473.1z M331.9,272.5
		c-40.9,0.2-72.7,9.7-100.5,29.8c-51.2,36.9-79.4,86-73.5,150.6c3.7,40,23.6,71.4,57.4,93.1c34.7,22.3,72.8,26.9,112.6,18.3
		c81.8-17.7,140.4-92.9,137.5-169.8c-0.9-23.9-7.4-46-22-65.1C413.7,290.6,373.3,273.8,331.9,272.5z M154.4,233.4
		c2.1,3.3,3.7,5.9,5.4,8.6c2.5-1.8,5-3.7,7.4-5.5c-2.8-2.8-5.6-5.7-8.3-8.5C157.7,229.6,156.4,231.1,154.4,233.4z M315.6,223.7
		c1.3-1,2.2-1.4,2.5-2c1-2.1,1.7-4.3,2.6-6.4c-2.3-0.3-4.5-0.5-6.8-0.8c-0.8-0.1-1.6-0.7-2.2-0.6c-2.2,0.5-4.3,1.3-6.4,2
		c1.3,2.1,2.3,4.4,4,6.1c0.4,0.4,2.8-1,4.5-1.6C313.9,220.8,314.6,222,315.6,223.7z M115.5,287.9c-2.4,0.8-4.5,1.6-6.6,2.3
		c1.2,2.2,2.2,4.5,3.6,6.6c0.6,0.9,1.9,2,2.8,1.9c1.8-0.2,4.4-0.5,5.2-1.7c1.2-1.7,2.2-4.9,1.4-6.3
		C120.9,289.1,117.8,288.8,115.5,287.9z M440.8,218.8c-2.1,3.2-4.5,5.2-4.2,6.9s3.1,4.3,4.6,4.2c1.7-0.1,4.3-2.8,4.5-4.5
		C445.8,223.8,443.3,221.9,440.8,218.8z M173.1,287.6c-1.1-1.7-2.3-3.3-3.4-5c-2.3,2.9-4.6,5.8-6.9,8.7c1,0.7,2.1,1.9,3.1,1.9
		C169.3,293.4,172.9,293.3,173.1,287.6z M143.6,296.6c-3-2.6-5.3-4.5-8.2-6.9c-1.1,4.3-1.9,7.4-3,11.8
		C136.6,299.7,139.6,298.4,143.6,296.6z M162.7,259.5c-1.1,4.2-1.9,7.3-3.1,12c4.3-1.8,7.3-3.1,11.1-4.8
		C167.9,264,165.7,262.1,162.7,259.5z M174.2,263.1c0.8-4.2,1.3-7,2.1-11.2c-4,1.7-6.6,2.8-10.1,4.3
		C168.9,258.6,171,260.3,174.2,263.1z M148.7,282c-3.8,1.7-6.4,2.8-10,4.4c2.9,2.4,5,4.1,8.1,6.7C147.5,288.9,148,286.1,148.7,282z"
		/>
	<path class="st0" d="M331.9,272.5c41.4,1.3,81.8,18.2,111.4,56.9c14.6,19.1,21,41.2,22,65.1c3,76.9-55.6,152.1-137.5,169.8
		c-39.8,8.6-77.9,4-112.6-18.3c-33.8-21.7-53.7-53.2-57.4-93.1c-5.9-64.6,22.3-113.7,73.5-150.6C259.3,282.2,291,272.6,331.9,272.5z
		 M322.8,274.9c-6.7,0.7-16.1,0.9-25.1,2.7c-50.7,9.9-89.6,37.4-116.1,81.5c-21.6,35.9-28.9,74.6-16.8,115.5
		c16.6,56,66,89.6,125.4,91c24.4,0.6,47.8-4.9,70.2-14.8c60.5-26.8,105.3-89.9,102.1-158.1c-1.1-23.9-8.4-45.8-23.5-64.5
		C409.9,292.1,371,276.3,322.8,274.9z"/>
	<path class="st0" d="M154.4,233.4c2-2.3,3.2-3.9,4.5-5.4c2.8,2.8,5.6,5.7,8.3,8.5c-2.5,1.8-5,3.7-7.4,5.5
		C158.2,239.4,156.5,236.7,154.4,233.4z"/>
	<path class="st0" d="M315.6,223.7c-1-1.7-1.7-2.9-2-3.3c-1.7,0.6-4,2-4.5,1.6c-1.7-1.7-2.7-4-4-6.1c2.1-0.7,4.3-1.5,6.4-2
		c0.7-0.2,1.5,0.5,2.2,0.6c2.3,0.3,4.5,0.5,6.8,0.8c-0.8,2.1-1.6,4.3-2.6,6.4C317.8,222.3,316.9,222.7,315.6,223.7z"/>
	<path class="st0" d="M115.5,287.9c2.3,0.9,5.4,1.2,6.4,2.8c0.9,1.4-0.1,4.6-1.4,6.3c-0.9,1.2-3.4,1.6-5.2,1.7
		c-0.9,0.1-2.2-1-2.8-1.9c-1.4-2.1-2.4-4.4-3.6-6.6C111,289.5,113,288.7,115.5,287.9z"/>
	<path class="st0" d="M440.8,218.8c2.4,3.1,5,5,4.9,6.6c-0.2,1.7-2.8,4.4-4.5,4.5c-1.5,0.1-4.4-2.5-4.6-4.2
		C436.3,224,438.7,222,440.8,218.8z"/>
	<path class="st0" d="M173.1,287.6c-0.2,5.7-3.8,5.8-7.2,5.6c-1.1,0-2.1-1.2-3.1-1.9c2.3-2.9,4.6-5.8,6.9-8.7
		C170.8,284.3,171.9,286,173.1,287.6z"/>
	<path class="st0" d="M143.6,296.6c-4,1.7-7,3-11.2,4.8c1.1-4.3,1.9-7.4,3-11.8C138.3,292.2,140.6,294.1,143.6,296.6z"/>
	<path class="st0" d="M162.7,259.5c3,2.7,5.1,4.6,8,7.1c-3.9,1.7-6.9,3-11.1,4.8C160.8,266.8,161.6,263.6,162.7,259.5z"/>
	<path class="st0" d="M115.7,473.1c1.7,0.4,3.4,0.8,5.2,1.2c-1.4,2.2-2.8,4.5-4.3,6.7c-1.5-1-3.6-1.7-4.4-3.1
		C110.3,474.4,114,474.2,115.7,473.1L115.7,473.1z"/>
	<path class="st0" d="M115.9,473c-1.7-0.7-4.1-0.9-5-2.1c-0.7-0.9,0.4-3.2,0.7-4.9c2.8,0.6,5.7,1.3,8.5,1.9c0,0.6,0,1.2,0.1,1.7
		c-1.5,1.2-3,2.3-4.4,3.5C115.7,473.1,115.9,473,115.9,473z"/>
	<path class="st0" d="M174.2,263.1c-3.2-2.8-5.3-4.5-8-6.9c3.5-1.5,6.1-2.6,10.1-4.3C175.5,256,175,258.9,174.2,263.1z"/>
	<path class="st0" d="M148.7,282c-0.7,4.1-1.1,6.9-1.8,11.1c-3.1-2.6-5.2-4.3-8.1-6.7C142.2,284.8,144.8,283.7,148.7,282z"/>
	<path class="st1" d="M322.8,274.9c48.2,1.4,87,17.2,116.3,53.2c15.2,18.7,22.4,40.6,23.5,64.5c3.2,68.2-41.6,131.3-102.1,158.1
		c-22.4,9.9-45.8,15.3-70.2,14.8c-59.5-1.4-108.8-35-125.4-91c-12.1-40.8-4.8-79.6,16.8-115.5c26.5-44.1,65.4-71.5,116.1-81.5
		C306.8,275.8,316.1,275.6,322.8,274.9z M320.7,277.4c-5.3,0.6-14.8,0.9-24.1,2.8c-48.9,9.7-86.5,36.3-112.3,78.7
		c-22.3,36.6-29.5,76.2-16.1,117.8c17.2,53.3,65,85.1,121.9,86.5c27.8,0.7,54-6.2,78.7-18.8c57.7-29.4,98.2-94.6,90.5-159.5
		c-3.1-26.4-14.2-49-33.4-67.5C397.7,290.3,363.6,278.1,320.7,277.4z"/>
	<path class="st0" d="M320.7,277.4c42.9,0.7,77,13,105.2,40c19.2,18.4,30.3,41,33.4,67.5c7.7,65-32.8,130.1-90.5,159.5
		c-24.8,12.6-50.9,19.5-78.7,18.8c-56.9-1.5-104.7-33.2-121.9-86.5c-13.4-41.6-6.2-81.1,16.1-117.8c25.8-42.4,63.4-69,112.3-78.7
		C305.9,278.3,315.4,278,320.7,277.4z M291.2,418.6c-0.1,11.4,8.6,20,20.3,20c11.3,0.1,20.9-9.1,21.1-20.3
		c0.2-10-8.8-19.3-18.9-19.3C301.1,399,291.3,407.4,291.2,418.6z M273.7,336.6c1.5,6.2-0.4,10.3-5.1,12.6c-4.4,2.1-8.3,0.9-11.5-3.9
		c-4-6-4.5-12.4-1.9-19c1.3-3.4,3.7-5.7,7.9-5.8c1.4,0,3.2-1.7,4-3c1-1.6,1.1-3.7,1.5-5.5c-9.4-6.3-21.9-0.8-25,10.8
		c-2.9,10.6-0.8,20.5,5.3,29.4c4.7,6.9,12.8,10.5,19.2,8.8c15.7-4.1,21.8-26.6,10.3-38.7c-5.6,4.1-11.2,8.2-17.1,12.5
		c1.2,2.8,2.4,5.3,3.7,8.1C268,340.8,270.6,338.8,273.7,336.6z M440,361.4c0.1-8.4-4.8-14.1-13.1-15.4
		c-13.9-2.1-31.2,11.4-32.5,25.4c-0.9,10,4.7,17.3,14,18.2C423.5,391,439.8,376.4,440,361.4z M250.3,501.5c4-1.5,7.5-2.2,10.5-4
		c8.6-5.1,10.6-15.8-0.1-21.1c-4.2-2-8.6-3.4-12.9-5.3c-3-1.4-4.3-0.2-5.9,2.4c-6.5,11.2-13.3,22.3-20,33.4c-0.9,1.5-1.7,3-2.8,4.8
		c1.9,0.6,3.3,0.9,4.4,1.4c4.2,2,7,1.5,8.8-3.3c1.1-2.9,3.1-5.5,4.8-8.2c0.3,0.2,0.6,0.3,0.9,0.5c0.4,6.8,0.9,13.6,1.4,20.7
		c3-0.6,5.1-1.1,7.2-1.3c4.6-0.4,5.7-2.8,5-7.1C250.8,510.1,250.7,505.8,250.3,501.5z M317.7,346.6c3-1.1,6.7-2.5,10.3-3.9
		c-5.8-15.5-11.4-30.5-17.1-45.9c-3.9,1.1-7.9,2.3-11.9,3.1c-2.8,0.6-3.7,1.9-3.9,4.7c-0.8,10.7-1.8,21.5-2.8,32.2
		c-0.3,3.7-0.8,7.4-1.2,11.4c4.4,0.5,8.1,0.9,12.6,1.4c0-5.1,0.1-9.5,6.6-10.2C316.7,338.7,313.8,345.1,317.7,346.6z M297.7,505.4
		c-0.4-1.8-0.7-4.5-1.5-7c-3.9-13-16.3-16.2-25.9-6.6c-8.2,8.2-11.4,18.3-9.9,29.6c0.8,6.2,3.4,11.8,10.1,14.2
		c7,2.5,12.3-0.4,17-5.1C294.4,523.9,297,515.5,297.7,505.4z M402,488.4c0.1-13.9-11.5-28.1-25.2-30.9c-10.4-2.1-18.1,4.5-17.7,15.1
		c0.6,13.6,13.1,27.7,26.5,29.9C394.8,504,401.9,497.8,402,488.4z M306.1,539.5c2.6,0.4,4.8,1.1,7,1.1c9.4-0.2,20.5-11.9,20.5-21.3
		c0-5.4-2.9-8.4-8.4-8.2c-3.5,0.1-6.9,1-10.4,1.2c-1.4,0.1-3.9-0.7-4.1-1.5c-0.3-1.5,0.2-4.1,1.3-4.8c1.8-1.1,4.4-1.7,6.4-1.2
		c3.3,0.9,10.9-2,10.1-4.7c-1.1-3.8-2.7-8-5.5-10.6c-3.1-2.9-7.3-1-10.5,1.4c-7.5,5.9-12.2,13.6-14.1,22.9
		c-1.4,6.9,3.5,11.1,10.5,9.4c3.4-0.8,6.7-1.8,10.2-2.3c1.1-0.2,2.4,1.2,3.6,1.8c-0.6,1.1-1,2.8-1.9,3.2c-3.9,1.5-7.9,2.6-12.7,4.2
		C307.8,532.2,307,535.5,306.1,539.5z M356.7,486c-0.9-1.2-1.4-2.1-2.1-2.8c-7.3-8.6-14.8-7.5-18.5,3.2c-2.6,7.4-3.6,15.2-1.6,23
		c2,7.9,8.4,9.9,14.6,4.6c2.4-2.1,4.7-4.3,7.3-6c0.9-0.6,2.6-0.2,4-0.2c0,1.4,0.5,3.2-0.2,4c-2.8,3.1-5.9,5.8-9.4,9.1
		c0.1,0.3,0.3,1.6,0.6,2.9c1.7,7.1,4.4,8,10.4,3.5c6.8-5.1,10.4-18.5,7.1-26.4c-2.3-5.5-6.9-7.3-12.1-4.3c-2.4,1.4-4.4,3.6-6.8,5
		c-1.6,0.9-3.6,1.6-5.3,1.3c-0.7-0.1-1.9-3-1.5-4.2c0.6-1.9,2.5-4.9,3.5-4.8C352.6,494.3,353.7,489.3,356.7,486z M385.7,325.7
		c-6.3,11.1-12.3,21.6-18.6,32.7c4.7,1.5,8.9,2.8,12.9,4.1c5.6-11,10.9-21.4,16.3-32.1c4.3,2,7.5,3.5,11.4,5.3
		c1.5-3.9,2.8-7.5,4.3-11.5c-10.1-4.6-19.5-8.8-29.3-13.3c-2.3,3.5-4.4,6.6-6.6,10.1C379.4,322.7,382.2,324,385.7,325.7z
		 M336.2,349.8c3.7-0.3,6.5-0.8,9.2-0.7c3.7,0.1,4.9-1.6,5.3-5c0.9-7.9,1.9-15.8,3-23.7c1-7.4,1.1-7.4,8.5-6
		c3.7,0.7,5.9,0.1,5.5-4.3c-0.2-1.6,0.3-3.4-0.1-5c-0.3-1.1-1.6-2.5-2.6-2.7c-9.5-1.1-19.1-2-29.2-3c-0.9,3.9-1.9,7.6-2.9,11.8
		c2.3,0.2,3.7,0.4,5.2,0.4c4.2-0.2,5.5,1,4.5,5.5C340.1,327.6,338.4,338.2,336.2,349.8z M229.2,398.1c4.5-7.7,8.9-15.1,13.4-22.9
		c-3.2-2.2-6.3-4.3-9.5-6.4c-2.7,4-5.1,7.5-8.1,11.8c-8.7-8-16.9-15.7-25.6-23.7c-2.2,3.8-4.2,7.2-6.3,10.6
		C205.5,377.8,217.2,387.9,229.2,398.1z M185.6,375.7c-0.9,2.2-1.6,4.4-2.7,6.3c-2.1,3.6-1.4,5.7,2.4,7.8
		c11,6.2,21.8,12.9,32.6,19.4c1.2,0.7,2.5,1.2,3.8,1.8c4-10.4,4-10.4-5.1-15.5c-1-0.6-2-1.2-3-1.8
		C204.4,387.8,195.2,381.9,185.6,375.7z"/>
	<path class="st1" d="M291.2,418.6c0.1-11.2,9.8-19.6,22.6-19.6c10,0,19.1,9.3,18.9,19.3c-0.2,11.1-9.8,20.3-21.1,20.3
		C299.8,438.5,291.1,430,291.2,418.6z"/>
	<path class="st1" d="M273.7,336.6c-3,2.2-5.7,4.2-8.8,6.4c-1.3-2.9-2.4-5.4-3.7-8.1c5.9-4.3,11.5-8.4,17.1-12.5
		c11.5,12.1,5.4,34.6-10.3,38.7c-6.4,1.7-14.5-1.9-19.2-8.8c-6.1-9-8.1-18.8-5.3-29.4c3.2-11.7,15.6-17.2,25-10.8
		c-0.5,1.8-0.6,3.9-1.5,5.5c-0.8,1.4-2.6,3-4,3c-4.2,0.1-6.6,2.3-7.9,5.8c-2.6,6.6-2.1,13.1,1.9,19c3.2,4.7,7.1,6,11.5,3.9
		C273.3,346.9,275.1,342.8,273.7,336.6z"/>
	<path class="st1" d="M440,361.4c-0.2,15-16.5,29.6-31.6,28.2c-9.3-0.9-15-8.2-14-18.2c1.3-14,18.6-27.5,32.5-25.4
		C435.2,347.3,440.1,353,440,361.4z M413,378.4c6,0,15.4-9.7,15.1-15.8c-0.2-3.3-2.2-5-5.6-4.9c-5.6,0.2-14.2,6.5-15.9,12
		C405,374.1,408.2,378.4,413,378.4z"/>
	<path class="st1" d="M250.3,501.5c0.4,4.3,0.5,8.6,1.3,12.8c0.7,4.3-0.4,6.7-5,7.1c-2.1,0.2-4.2,0.8-7.2,1.3
		c-0.5-7.1-0.9-13.9-1.4-20.7c-0.3-0.2-0.6-0.3-0.9-0.5c-1.6,2.7-3.7,5.3-4.8,8.2c-1.8,4.8-4.6,5.4-8.8,3.3
		c-1.2-0.6-2.5-0.8-4.4-1.4c1.1-1.8,1.9-3.3,2.8-4.8c6.7-11.1,13.4-22.2,20-33.4c1.5-2.6,2.8-3.8,5.9-2.4c4.2,1.9,8.7,3.3,12.9,5.3
		c10.8,5.3,8.7,16,0.1,21.1C257.8,499.3,254.3,500,250.3,501.5z M243.8,490.7c0.2,0.4,0.4,0.8,0.6,1.2c2.7-0.5,5.6-0.7,8.2-1.6
		c1.1-0.4,2.7-2.5,2.4-3c-0.7-1.4-2.1-2.8-3.6-3.5c-1-0.4-3,0-3.7,0.8C246.2,486.4,245.1,488.7,243.8,490.7z"/>
	<path class="st1" d="M317.7,346.6c-3.9-1.5-1.1-7.9-7.3-7.1c-6.6,0.7-6.7,5.2-6.6,10.2c-4.4-0.5-8.2-0.9-12.6-1.4
		c0.4-3.9,0.8-7.6,1.2-11.4c1-10.7,2-21.5,2.8-32.2c0.2-2.8,1-4.1,3.9-4.7c4-0.8,8-2.1,11.9-3.1c5.7,15.4,11.3,30.4,17.1,45.9
		C324.4,344.1,320.8,345.4,317.7,346.6z M306,315c-0.4,0.1-0.9,0.1-1.3,0.2c-0.3,5.2-0.6,10.4-1,16.2c2.7-0.3,4.5-0.5,7-0.7
		C309,325,307.5,320,306,315z"/>
	<path class="st1" d="M297.7,505.4c-0.7,10-3.4,18.5-10.1,25.1c-4.7,4.7-10.1,7.6-17,5.1c-6.7-2.4-9.3-8.1-10.1-14.2
		c-1.5-11.3,1.7-21.5,9.9-29.6c9.6-9.6,21.9-6.4,25.9,6.6C297,501,297.4,503.6,297.7,505.4z M286.8,510c-0.6-3.4-0.6-5.4-1.2-7.2
		c-1.5-4.3-4.9-5.3-8-2.1c-4.5,4.6-7.8,10.2-6.7,16.9c0.4,2.4,3,5.3,5.3,6.1c1.6,0.6,5.4-1.2,6.4-2.9
		C284.8,517.2,285.7,512.9,286.8,510z"/>
	<path class="st1" d="M402,488.4c-0.1,9.4-7.2,15.6-16.4,14.1c-13.5-2.2-26-16.2-26.5-29.9c-0.4-10.6,7.3-17.2,17.7-15.1
		C390.4,460.3,402.1,474.6,402,488.4z M391.3,484.5c0-5.8-10.3-15.8-16.3-15.5c-3.2,0.2-4.6,2.2-4.4,5.4c0.3,5.7,7.1,14.5,12.6,16.1
		C387.3,491.8,391.3,488.8,391.3,484.5z"/>
	<path class="st1" d="M306.1,539.5c0.9-4,1.6-7.4,2.1-9.6c4.8-1.5,8.8-2.6,12.7-4.2c0.9-0.4,1.3-2.1,1.9-3.2
		c-1.2-0.6-2.5-1.9-3.6-1.8c-3.4,0.5-6.8,1.5-10.2,2.3c-6.9,1.7-11.9-2.5-10.5-9.4c1.9-9.3,6.7-17,14.1-22.9
		c3.1-2.5,7.4-4.3,10.5-1.4c2.8,2.6,4.4,6.8,5.5,10.6c0.8,2.7-6.8,5.6-10.1,4.7c-2-0.5-4.6,0.1-6.4,1.2c-1.1,0.7-1.6,3.3-1.3,4.8
		c0.1,0.8,2.7,1.5,4.1,1.5c3.5-0.2,6.9-1.1,10.4-1.2c5.4-0.2,8.3,2.8,8.4,8.2c0.1,9.4-11.1,21.1-20.5,21.3
		C311,540.6,308.7,539.9,306.1,539.5z"/>
	<path class="st1" d="M356.7,486c-3,3.3-4.1,8.3-10.1,7.7c-1-0.1-2.9,2.9-3.5,4.8c-0.4,1.2,0.8,4.1,1.5,4.2c1.7,0.2,3.8-0.4,5.3-1.3
		c2.4-1.4,4.4-3.6,6.8-5c5.2-2.9,9.8-1.1,12.1,4.3c3.3,7.9-0.3,21.3-7.1,26.4c-6,4.5-8.7,3.6-10.4-3.5c-0.3-1.3-0.6-2.6-0.6-2.9
		c3.5-3.3,6.6-6,9.4-9.1c0.7-0.8,0.2-2.6,0.2-4c-1.3,0-3-0.4-4,0.2c-2.6,1.8-4.9,4-7.3,6c-6.2,5.4-12.6,3.4-14.6-4.6
		c-2-7.8-1-15.6,1.6-23c3.8-10.6,11.2-11.8,18.5-3.2C355.2,483.9,355.8,484.8,356.7,486z"/>
	<path class="st1" d="M385.7,325.7c-3.6-1.7-6.4-3-9.7-4.6c2.3-3.5,4.3-6.6,6.6-10.1c9.8,4.4,19.2,8.7,29.3,13.3
		c-1.5,3.9-2.8,7.5-4.3,11.5c-3.9-1.8-7.2-3.3-11.4-5.3c-5.4,10.6-10.7,21.1-16.3,32.1c-4-1.3-8.2-2.6-12.9-4.1
		C373.4,347.3,379.4,336.8,385.7,325.7z"/>
	<path class="st1" d="M336.2,349.8c2.2-11.5,3.9-22.2,6.3-32.6c1-4.5-0.3-5.8-4.5-5.5c-1.4,0.1-2.9-0.2-5.2-0.4c1-4.2,2-8,2.9-11.8
		c10.1,1,19.7,1.9,29.2,3c1,0.1,2.3,1.6,2.6,2.7c0.4,1.5,0,3.3,0.1,5c0.5,4.4-1.8,5-5.5,4.3c-7.4-1.4-7.5-1.3-8.5,6
		c-1.1,7.9-2.2,15.8-3,23.7c-0.4,3.4-1.6,5.1-5.3,5C342.7,349,339.9,349.5,336.2,349.8z"/>
	<path class="st1" d="M229.2,398.1c-12-10.2-23.7-20.2-35.9-30.6c2-3.5,4-6.8,6.3-10.6c8.7,8,16.9,15.7,25.6,23.7
		c2.9-4.3,5.3-7.8,8.1-11.8c3.2,2.2,6.3,4.3,9.5,6.4C238.1,382.9,233.7,390.3,229.2,398.1z"/>
	<path class="st1" d="M185.6,375.7c9.6,6.2,18.8,12.1,28,18c1,0.6,2,1.2,3,1.8c9.1,5.1,9.1,5.1,5.1,15.5c-1.3-0.6-2.6-1.1-3.8-1.8
		c-10.9-6.5-21.6-13.2-32.6-19.4c-3.8-2.2-4.5-4.2-2.4-7.8C184,380.1,184.7,377.9,185.6,375.7z"/>
	<path class="st0" d="M413,378.4c-4.8,0-7.9-4.3-6.5-8.8c1.8-5.4,10.3-11.8,15.9-12c3.4-0.1,5.5,1.6,5.6,4.9
		C428.4,368.7,419,378.4,413,378.4z"/>
	<path class="st0" d="M243.8,490.7c1.3-2,2.3-4.3,3.9-6c0.7-0.8,2.7-1.3,3.7-0.8c1.5,0.7,2.9,2,3.6,3.5c0.3,0.5-1.3,2.7-2.4,3
		c-2.6,0.9-5.5,1.1-8.2,1.6C244.2,491.5,244,491.1,243.8,490.7z"/>
	<path class="st0" d="M306,315c1.5,5,3,10,4.7,15.7c-2.5,0.3-4.3,0.4-7,0.7c0.4-5.8,0.7-11,1-16.2C305.2,315.1,305.6,315.1,306,315z
		"/>
	<path class="st0" d="M286.8,510c-1.1,2.9-2,7.1-4.1,10.7c-1.1,1.8-4.8,3.6-6.4,2.9c-2.3-0.8-4.9-3.7-5.3-6.1
		c-1.2-6.7,2.2-12.2,6.7-16.9c3.1-3.2,6.5-2.2,8,2.1C286.2,504.6,286.2,506.6,286.8,510z"/>
	<path class="st0" d="M391.3,484.5c0,4.3-4,7.3-8.1,6.1c-5.5-1.6-12.2-10.4-12.6-16.1c-0.2-3.2,1.2-5.2,4.4-5.4
		C381,468.7,391.3,478.7,391.3,484.5z"/>
</g>
</svg>
