<?xml version="1.0" encoding="utf-8"?>
<!-- Generator: Adobe Illustrator 21.1.0, SVG Export Plug-In . SVG Version: 6.00 Build 0)  -->
<svg version="1.1" id="Шар_1" xmlns="http://www.w3.org/2000/svg" xmlns:xlink="http://www.w3.org/1999/xlink" x="0px" y="0px"
	 viewBox="0 0 425 425" style="enable-background:new 0 0 425 425;" xml:space="preserve">
<style type="text/css">
	.st0{fill:#FFFFFF;}
	.st1{fill:#F26805;}
</style>
<g>
	<path class="st0" d="M425,140c0,95,0,190,0,285c-141.7,0-283.3,0-425,0C0,283.3,0,141.7,0,0c141.7,0,283.3,0,425,0c0,43,0,86,0,129
		c-0.4-3.4-1-6.8-1.3-10.3c-0.9-11.3-0.1-22.9-2.8-33.7c-3.2-13.1-8.4-25.9-14.3-38.1C390.4,13.7,363.2,3.2,331,5.6
		c-4.3,0.3-9.6,3-12.4,6.3c-12.6,14.6-9.3,41.9,15,47.2c9.3,2,18.5-3.5,21-12.5c1.5-5.7-0.7-11.5-5.8-14.8c-3.4-2.2-6.9-2.5-10.3,0
		c-3,2.2-3.6,5.2-2.4,8.9c0.5,1.6-0.8,3.7-1.3,5.5c-1.4-0.5-3.4-0.5-4.2-1.5c-4.6-5.4-1.9-17,4.6-19.8c4.9-2.1,10.1-2.7,15-0.4
		c14.7,6.9,27.1,16.4,33.4,32.1c8.4,21.1,5.6,41.7-3,62c-0.4,1-1.3,1.7-2.5,3.2c-5.4-7-10.7-13.4-15.6-20.1
		C345.9,79,324,63.7,297,57c-17.7-4.4-36-6.1-54.1-8.6c-8.7-1.2-11.3-3-13.1-11.5c-1-5.1-1.7-10.4-2.5-15.5
		c-0.4-0.3-0.8-0.6-1.1-0.9c-1.5,2.4-3,4.8-4.4,7.2c-0.4-0.3-0.8-0.6-1.2-1c-1.2-0.9-2.4-1.7-3.8-2.7c-3.3,5.6-5.9-0.8-9.5-0.6
		c0,5.4-0.2,10.7,0,15.9c0.3,7.4,0.2,7.4-7.1,9.1c-21.8,5.3-43.4,11.1-65.2,16.4c-5.6,1.4-11.4,2.1-17.2,2.5c-3.1,0.2-5.1,0.9-7,3.5
		c-7.1,10.1-14.4,20-21.7,29.9c-1.1,1.5-2.5,2.7-3.7,4.1c-0.5-0.2-0.9-0.5-1.4-0.7c0.3-1.6,0.4-3.3,1.1-4.6
		c3.3-6.4,6.7-12.6,10.1-18.9c2.7-5.1,5.4-10.2,8.2-15.6c-11.8-3.7-20.7-10.4-28.6-18.8c-2.1-2.3-4.8-4.1-7.5-5.8
		c-6.6-4.2-11.4-1.9-12,5.9c-0.4,4.6,0.3,9.4-0.3,14c-0.4,2.7-1.7,6-3.7,7.5c-8.4,6.2-14.8,13.9-19,23.4c-1.9,4.4-5,6-9.6,6.5
		c-3.7,0.4-7.3,2-10.7,3.6c-3.7,1.8-4.4,4.8-2.9,8.8c3,8,8.9,12.2,17,13.7c5.3,1,8.7,3.8,9.4,9.5c0.2,1.9,1.1,3.7,1.8,6
		c2-1.3,3.5-2.2,5-3.2c8.6-5.7,17.2-11.5,25.8-17.1c1.5-1,3.5-1.4,5.3-2.1c0.3,0.5,0.6,1,0.8,1.5c-1.4,1.5-2.8,3.1-4.3,4.4
		c-9.6,8.5-19.3,16.9-28.7,25.6c-2.1,2-3.7,5-4.6,7.8c-1.6,4.7-2.1,9.8-3.7,14.5c-11.2,32.2-15.4,64.9-7.7,98.6
		c0.6,2.7-0.4,4.2-3,5.3c-6.8,2.9-13.5,6-20.7,9.3c3.3,1.9,5.9,3.4,8.6,4.9c-1.7,2.3-3.4,4.7-4.8,6.7c1.5,0.7,4.4,1.1,5.4,2.7
		c0.9,1.4-0.3,4.2-0.6,6.9c6.1-2.1,11.8-4.1,17.6-6.1c3.1-1.1,5-0.9,6.1,3.2c1.7,6.7,4,13.4,6.7,19.8
		c19.6,46.4,54.7,75.9,101.8,91.1c13.2,4.3,27.7,5.7,41.7,6.4c10.3,0.5,20.8-1.9,31.1-3.6c23.1-3.7,46.3-7.5,68.1-16.7
		c2.6-1.1,4.1-0.6,5.8,1.7c3.8,5.3,8,10.3,12.8,16.3c0.5-3.7,0.7-5.8,1-8.3c2.7,0.3,5.1,0.6,7.9,1c-0.5-2.9-1-5.3-1.5-8.2
		c2.5,0.4,4.4,0.8,7.3,1.3c-3.2-6.6-6.1-12.3-8.6-18.2c-0.6-1.4-0.4-4.1,0.6-5.1c11.4-11.2,23.1-22.2,34.6-33.3
		c2.4-2.3,4.1-2.6,6.6-0.1c3.3,3.4,7,6.3,11.9,10.7c-2.3-8.1,1.8-7.9,6-7.3c-0.1-2.5-0.2-4.5-0.4-6.9c2.4,0.2,4.3,0.3,6.7,0.5
		c-2.6-3.8-4.9-7.2-7.3-10.6c-2.9-4.1-3.1-7.8-0.4-12.4c11.4-19.4,20.4-40,27.5-61.3c2.8-8.5,4.6-17.5,8.4-25.5
		c11.4-24.2,17.4-49.8,21-76.1C423.6,151.4,424.3,145.7,425,140z"/>
	<path class="st1" d="M425,140c-0.7,5.7-1.4,11.4-2.2,17.2c-3.6,26.3-9.6,51.9-21,76.1c-3.8,8-5.6,17-8.4,25.5
		c-7.1,21.4-16.1,41.9-27.5,61.3c-2.7,4.6-2.5,8.3,0.4,12.4c2.4,3.4,4.7,6.8,7.3,10.6c-2.4-0.2-4.3-0.3-6.7-0.5
		c0.1,2.4,0.2,4.4,0.4,6.9c-4.2-0.6-8.4-0.8-6,7.3c-4.9-4.3-8.6-7.3-11.9-10.7c-2.5-2.5-4.2-2.2-6.6,0.1
		c-11.5,11.1-23.2,22.1-34.6,33.3c-1,0.9-1.1,3.7-0.6,5.1c2.5,5.9,5.4,11.6,8.6,18.2c-2.9-0.5-4.8-0.8-7.3-1.3
		c0.5,2.8,1,5.3,1.5,8.2c-2.8-0.3-5.1-0.6-7.9-1c-0.3,2.5-0.6,4.6-1,8.3c-4.8-6-8.9-11-12.8-16.3c-1.7-2.3-3.1-2.9-5.8-1.7
		c-21.8,9.2-44.9,13-68.1,16.7c-10.3,1.7-20.8,4.1-31.1,3.6c-14-0.7-28.5-2.1-41.7-6.4c-47.1-15.3-82.2-44.8-101.8-91.1
		c-2.7-6.4-5-13-6.7-19.8c-1-4-2.9-4.2-6.1-3.2c-5.8,2-11.5,4-17.6,6.1c0.3-2.8,1.5-5.5,0.6-6.9c-1-1.6-3.8-2-5.4-2.7
		c1.4-2,3.1-4.3,4.8-6.7c-2.7-1.5-5.3-3-8.6-4.9c7.2-3.2,13.9-6.4,20.7-9.3c2.6-1.1,3.6-2.6,3-5.3c-7.6-33.7-3.5-66.4,7.7-98.6
		c1.6-4.7,2.1-9.8,3.7-14.5c1-2.8,2.5-5.8,4.6-7.8c9.4-8.7,19.2-17.1,28.7-25.6c1.5-1.4,2.9-3,4.3-4.4c-0.3-0.5-0.6-1-0.8-1.5
		c-1.8,0.7-3.7,1-5.3,2.1c-8.7,5.6-17.2,11.4-25.8,17.1c-1.5,1-3,1.9-5,3.2c-0.7-2.3-1.6-4.1-1.8-6c-0.7-5.7-4-8.5-9.4-9.5
		c-8.1-1.5-14-5.7-17-13.7c-1.5-4-0.9-7,2.9-8.8c3.4-1.6,7.1-3.2,10.7-3.6c4.6-0.5,7.7-2,9.6-6.5c4.1-9.5,10.6-17.2,19-23.4
		c2-1.5,3.4-4.8,3.7-7.5c0.6-4.6-0.1-9.3,0.3-14c0.6-7.8,5.3-10.1,12-5.9c2.7,1.7,5.4,3.5,7.5,5.8c7.8,8.4,16.8,15.1,28.6,18.8
		c-2.9,5.4-5.5,10.5-8.2,15.6c-3.4,6.3-6.8,12.6-10.1,18.9c-0.7,1.4-0.7,3.1-1.1,4.6c0.5,0.2,0.9,0.5,1.4,0.7
		c1.2-1.4,2.6-2.6,3.7-4.1c7.3-9.9,14.7-19.8,21.7-29.9c1.9-2.7,3.9-3.3,7-3.5c5.8-0.4,11.6-1.2,17.2-2.5
		c21.8-5.3,43.4-11,65.2-16.4c7.3-1.8,7.4-1.7,7.1-9.1c-0.2-5.2,0-10.5,0-15.9c3.6-0.1,6.2,6.3,9.5,0.6c1.5,1,2.6,1.9,3.8,2.7
		c0.4,0.3,0.8,0.6,1.2,1c1.5-2.4,3-4.8,4.4-7.2c0.4,0.3,0.8,0.6,1.1,0.9c0.8,5.2,1.4,10.4,2.5,15.5c1.7,8.5,4.4,10.3,13.1,11.5
		c18.1,2.5,36.4,4.2,54.1,8.6c27,6.7,48.9,22,65.4,44.7c4.9,6.7,10.1,13.1,15.6,20.1c1.2-1.5,2.1-2.2,2.5-3.2
		c8.6-20.3,11.4-40.9,3-62c-6.2-15.7-18.6-25.2-33.4-32.1c-4.9-2.3-10.1-1.7-15,0.4c-6.5,2.8-9.2,14.4-4.6,19.8c0.8,1,2.8,1,4.2,1.5
		c0.5-1.9,1.7-4,1.3-5.5c-1.2-3.7-0.6-6.6,2.4-8.9c3.3-2.5,6.9-2.1,10.3,0c5.1,3.3,7.3,9,5.8,14.8c-2.5,9.1-11.7,14.5-21,12.5
		c-24.3-5.2-27.7-32.6-15-47.2c2.9-3.3,8.1-6,12.4-6.3c32.2-2.5,59.5,8.1,75.6,41.3c5.9,12.2,11.1,25,14.3,38.1
		c2.7,10.8,1.9,22.5,2.8,33.7c0.3,3.4,0.8,6.8,1.3,10.3C425,132.7,425,136.3,425,140z M20.7,289.1c1.5-1.2,3-2.3,4.4-3.5
		c0-0.6,0-1.2-0.1-1.7c-2.8-0.6-5.7-1.3-8.5-1.9c-0.3,1.7-1.4,4-0.7,4.9c0.9,1.3,3.3,1.5,5,2.1c-1.8,1.2-5.5,1.4-3.6,4.9
		c0.8,1.4,2.9,2.1,4.4,3.1c1.4-2.2,2.8-4.5,4.3-6.7C24.2,289.9,22.4,289.5,20.7,289.1z M236.9,88.5c-40.9,0.2-72.7,9.7-100.5,29.8
		c-51.2,36.9-79.4,86-73.5,150.6c3.7,40,23.6,71.4,57.4,93.1c34.7,22.3,72.8,26.9,112.6,18.3c81.8-17.7,140.4-92.9,137.5-169.8
		c-0.9-23.9-7.4-46-22-65.1C318.7,106.6,278.3,89.8,236.9,88.5z M59.4,49.4c2.1,3.3,3.7,5.9,5.4,8.6c2.5-1.8,5-3.7,7.4-5.5
		c-2.8-2.8-5.6-5.7-8.3-8.5C62.7,45.6,61.4,47.1,59.4,49.4z M220.6,39.7c1.3-1,2.2-1.4,2.5-2c1-2.1,1.7-4.3,2.6-6.4
		c-2.3-0.3-4.5-0.5-6.8-0.8c-0.8-0.1-1.6-0.7-2.2-0.6c-2.2,0.5-4.3,1.3-6.4,2c1.3,2.1,2.3,4.4,4,6.1c0.4,0.4,2.8-1,4.5-1.6
		C218.9,36.8,219.6,38,220.6,39.7z M20.5,103.9c-2.4,0.8-4.5,1.6-6.6,2.3c1.2,2.2,2.2,4.5,3.6,6.6c0.6,0.9,1.9,2,2.8,1.9
		c1.8-0.2,4.4-0.5,5.2-1.7c1.2-1.7,2.2-4.9,1.4-6.3C25.9,105.1,22.8,104.8,20.5,103.9z M345.8,34.8c-2.1,3.2-4.5,5.2-4.2,6.9
		s3.1,4.3,4.6,4.2c1.7-0.1,4.3-2.8,4.5-4.5C350.8,39.8,348.3,37.9,345.8,34.8z M78.1,103.6c-1.1-1.7-2.3-3.3-3.4-5
		c-2.3,2.9-4.6,5.8-6.9,8.7c1,0.7,2.1,1.9,3.1,1.9C74.3,109.4,77.9,109.3,78.1,103.6z M48.6,112.6c-3-2.6-5.3-4.5-8.2-6.9
		c-1.1,4.3-1.9,7.4-3,11.8C41.6,115.7,44.6,114.4,48.6,112.6z M67.7,75.5c-1.1,4.2-1.9,7.3-3.1,12c4.3-1.8,7.3-3.1,11.1-4.8
		C72.9,80,70.7,78.1,67.7,75.5z M79.2,79.1c0.8-4.2,1.3-7,2.1-11.2c-4,1.7-6.6,2.8-10.1,4.3C73.9,74.6,76,76.3,79.2,79.1z M53.7,98
		c-3.8,1.7-6.4,2.8-10,4.4c2.9,2.4,5,4.1,8.1,6.7C52.5,104.9,53,102.1,53.7,98z"/>
	<path class="st0" d="M236.9,88.5c41.4,1.3,81.8,18.2,111.4,56.9c14.6,19.1,21,41.2,22,65.1c3,76.9-55.6,152.1-137.5,169.8
		c-39.8,8.6-77.9,4-112.6-18.3c-33.8-21.7-53.7-53.2-57.4-93.1c-5.9-64.6,22.3-113.7,73.5-150.6C164.3,98.2,196,88.6,236.9,88.5z
		 M227.8,90.9c-6.7,0.7-16.1,0.9-25.1,2.7c-50.7,9.9-89.6,37.4-116.1,81.5C65,211,57.7,249.7,69.8,290.6c16.6,56,66,89.6,125.4,91
		c24.4,0.6,47.8-4.9,70.2-14.8c60.5-26.8,105.3-89.9,102.1-158.1c-1.1-23.9-8.4-45.8-23.5-64.5C314.9,108.1,276,92.3,227.8,90.9z"/>
	<path class="st0" d="M59.4,49.4c2-2.3,3.2-3.9,4.5-5.4c2.8,2.8,5.6,5.7,8.3,8.5c-2.5,1.8-5,3.7-7.4,5.5
		C63.2,55.4,61.5,52.7,59.4,49.4z"/>
	<path class="st0" d="M220.6,39.7c-1-1.7-1.7-2.9-2-3.3c-1.7,0.6-4,2-4.5,1.6c-1.7-1.7-2.7-4-4-6.1c2.1-0.7,4.3-1.5,6.4-2
		c0.7-0.2,1.5,0.5,2.2,0.6c2.3,0.3,4.5,0.5,6.8,0.8c-0.8,2.1-1.6,4.3-2.6,6.4C222.8,38.3,221.9,38.7,220.6,39.7z"/>
	<path class="st0" d="M20.5,103.9c2.3,0.9,5.4,1.2,6.4,2.8c0.9,1.4-0.1,4.6-1.4,6.3c-0.9,1.2-3.4,1.6-5.2,1.7
		c-0.9,0.1-2.2-1-2.8-1.9c-1.4-2.1-2.4-4.4-3.6-6.6C16,105.5,18,104.7,20.5,103.9z"/>
	<path class="st0" d="M345.8,34.8c2.4,3.1,5,5,4.9,6.6c-0.2,1.7-2.8,4.4-4.5,4.5c-1.5,0.1-4.4-2.5-4.6-4.2
		C341.3,40,343.7,38,345.8,34.8z"/>
	<path class="st0" d="M78.1,103.6c-0.2,5.7-3.8,5.8-7.2,5.6c-1.1,0-2.1-1.2-3.1-1.9c2.3-2.9,4.6-5.8,6.9-8.7
		C75.8,100.3,76.9,102,78.1,103.6z"/>
	<path class="st0" d="M48.6,112.6c-4,1.7-7,3-11.2,4.8c1.1-4.3,1.9-7.4,3-11.8C43.3,108.2,45.6,110.1,48.6,112.6z"/>
	<path class="st0" d="M67.7,75.5c3,2.7,5.1,4.6,8,7.1c-3.9,1.7-6.9,3-11.1,4.8C65.8,82.8,66.6,79.6,67.7,75.5z"/>
	<path class="st0" d="M20.7,289.1c1.7,0.4,3.4,0.8,5.2,1.2c-1.4,2.2-2.8,4.5-4.3,6.7c-1.5-1-3.6-1.7-4.4-3.1
		C15.3,290.4,19,290.2,20.7,289.1L20.7,289.1z"/>
	<path class="st0" d="M20.9,289c-1.7-0.7-4.1-0.9-5-2.1c-0.7-0.9,0.4-3.2,0.7-4.9c2.8,0.6,5.7,1.3,8.5,1.9c0,0.6,0,1.2,0.1,1.7
		c-1.5,1.2-3,2.3-4.4,3.5C20.7,289.1,20.9,289,20.9,289z"/>
	<path class="st0" d="M79.2,79.1c-3.2-2.8-5.3-4.5-8-6.9c3.5-1.5,6.1-2.6,10.1-4.3C80.5,72,80,74.9,79.2,79.1z"/>
	<path class="st0" d="M53.7,98c-0.7,4.1-1.1,6.9-1.8,11.1c-3.1-2.6-5.2-4.3-8.1-6.7C47.2,100.8,49.8,99.7,53.7,98z"/>
	<path class="st1" d="M227.8,90.9c48.2,1.4,87,17.2,116.3,53.2c15.2,18.7,22.4,40.6,23.5,64.5c3.2,68.2-41.6,131.3-102.1,158.1
		c-22.4,9.9-45.8,15.3-70.2,14.8c-59.5-1.4-108.8-35-125.4-91c-12.1-40.8-4.8-79.6,16.8-115.5c26.5-44.1,65.4-71.5,116.1-81.5
		C211.8,91.8,221.1,91.6,227.8,90.9z M225.7,93.4c-5.3,0.6-14.8,0.9-24.1,2.8c-48.9,9.7-86.5,36.3-112.3,78.7
		C67,211.5,59.8,251.1,73.2,292.7c17.2,53.3,65,85.1,121.9,86.5c27.8,0.7,54-6.2,78.7-18.8c57.7-29.4,98.2-94.6,90.5-159.5
		c-3.1-26.4-14.2-49-33.4-67.5C302.7,106.3,268.6,94.1,225.7,93.4z"/>
	<path class="st0" d="M225.7,93.4c42.9,0.7,77,13,105.2,40c19.2,18.4,30.3,41,33.4,67.5c7.7,65-32.8,130.1-90.5,159.5
		c-24.8,12.6-50.9,19.5-78.7,18.8c-56.9-1.5-104.7-33.2-121.9-86.5c-13.4-41.6-6.2-81.1,16.1-117.8c25.8-42.4,63.4-69,112.3-78.7
		C210.9,94.3,220.4,94,225.7,93.4z M196.2,234.6c-0.1,11.4,8.6,20,20.3,20c11.3,0.1,20.9-9.1,21.1-20.3c0.2-10-8.8-19.3-18.9-19.3
		C206.1,215,196.3,223.4,196.2,234.6z M178.7,152.6c1.5,6.2-0.4,10.3-5.1,12.6c-4.4,2.1-8.3,0.9-11.5-3.9c-4-6-4.5-12.4-1.9-19
		c1.3-3.4,3.7-5.7,7.9-5.8c1.4,0,3.2-1.7,4-3c1-1.6,1.1-3.7,1.5-5.5c-9.4-6.3-21.9-0.8-25,10.8c-2.9,10.6-0.8,20.5,5.3,29.4
		c4.7,6.9,12.8,10.5,19.2,8.8c15.7-4.1,21.8-26.6,10.3-38.7c-5.6,4.1-11.2,8.2-17.1,12.5c1.2,2.8,2.4,5.3,3.7,8.1
		C173,156.8,175.6,154.8,178.7,152.6z M345,177.4c0.1-8.4-4.8-14.1-13.1-15.4c-13.9-2.1-31.2,11.4-32.5,25.4
		c-0.9,10,4.7,17.3,14,18.2C328.5,207,344.8,192.4,345,177.4z M155.3,317.5c4-1.5,7.5-2.2,10.5-4c8.6-5.1,10.6-15.8-0.1-21.1
		c-4.2-2-8.6-3.4-12.9-5.3c-3-1.4-4.3-0.2-5.9,2.4c-6.5,11.2-13.3,22.3-20,33.4c-0.9,1.5-1.7,3-2.8,4.8c1.9,0.6,3.3,0.9,4.4,1.4
		c4.2,2,7,1.5,8.8-3.3c1.1-2.9,3.1-5.5,4.8-8.2c0.3,0.2,0.6,0.3,0.9,0.5c0.4,6.8,0.9,13.6,1.4,20.7c3-0.6,5.1-1.1,7.2-1.3
		c4.6-0.4,5.7-2.8,5-7.1C155.8,326.1,155.7,321.8,155.3,317.5z M222.7,162.6c3-1.1,6.7-2.5,10.3-3.9c-5.8-15.5-11.4-30.5-17.1-45.9
		c-3.9,1.1-7.9,2.3-11.9,3.1c-2.8,0.6-3.7,1.9-3.9,4.7c-0.8,10.7-1.8,21.5-2.8,32.2c-0.3,3.7-0.8,7.4-1.2,11.4
		c4.4,0.5,8.1,0.9,12.6,1.4c0-5.1,0.1-9.5,6.6-10.2C221.7,154.7,218.8,161.1,222.7,162.6z M202.7,321.4c-0.4-1.8-0.7-4.5-1.5-7
		c-3.9-13-16.3-16.2-25.9-6.6c-8.2,8.2-11.4,18.3-9.9,29.6c0.8,6.2,3.4,11.8,10.1,14.2c7,2.5,12.3-0.4,17-5.1
		C199.4,339.9,202,331.5,202.7,321.4z M307,304.4c0.1-13.9-11.5-28.1-25.2-30.9c-10.4-2.1-18.1,4.5-17.7,15.1
		c0.6,13.6,13.1,27.7,26.5,29.9C299.8,320,306.9,313.8,307,304.4z M211.1,355.5c2.6,0.4,4.8,1.1,7,1.1c9.4-0.2,20.5-11.9,20.5-21.3
		c0-5.4-2.9-8.4-8.4-8.2c-3.5,0.1-6.9,1-10.4,1.2c-1.4,0.1-3.9-0.7-4.1-1.5c-0.3-1.5,0.2-4.1,1.3-4.8c1.8-1.1,4.4-1.7,6.4-1.2
		c3.3,0.9,10.9-2,10.1-4.7c-1.1-3.8-2.7-8-5.5-10.6c-3.1-2.9-7.3-1-10.5,1.4c-7.5,5.9-12.2,13.6-14.1,22.9
		c-1.4,6.9,3.5,11.1,10.5,9.4c3.4-0.8,6.7-1.8,10.2-2.3c1.1-0.2,2.4,1.2,3.6,1.8c-0.6,1.1-1,2.8-1.9,3.2c-3.9,1.5-7.9,2.6-12.7,4.2
		C212.8,348.2,212,351.5,211.1,355.5z M261.7,302c-0.9-1.2-1.4-2.1-2.1-2.8c-7.3-8.6-14.8-7.5-18.5,3.2c-2.6,7.4-3.6,15.2-1.6,23
		c2,7.9,8.4,9.9,14.6,4.6c2.4-2.1,4.7-4.3,7.3-6c0.9-0.6,2.6-0.2,4-0.2c0,1.4,0.5,3.2-0.2,4c-2.8,3.1-5.9,5.8-9.4,9.1
		c0.1,0.3,0.3,1.6,0.6,2.9c1.7,7.1,4.4,8,10.4,3.5c6.8-5.1,10.4-18.5,7.1-26.4c-2.3-5.5-6.9-7.3-12.1-4.3c-2.4,1.4-4.4,3.6-6.8,5
		c-1.6,0.9-3.6,1.6-5.3,1.3c-0.7-0.1-1.9-3-1.5-4.2c0.6-1.9,2.5-4.9,3.5-4.8C257.6,310.3,258.7,305.3,261.7,302z M290.7,141.7
		c-6.3,11.1-12.3,21.6-18.6,32.7c4.7,1.5,8.9,2.8,12.9,4.1c5.6-11,10.9-21.4,16.3-32.1c4.3,2,7.5,3.5,11.4,5.3
		c1.5-3.9,2.8-7.5,4.3-11.5c-10.1-4.6-19.5-8.8-29.3-13.3c-2.3,3.5-4.4,6.6-6.6,10.1C284.4,138.7,287.2,140,290.7,141.7z
		 M241.2,165.8c3.7-0.3,6.5-0.8,9.2-0.7c3.7,0.1,4.9-1.6,5.3-5c0.9-7.9,1.9-15.8,3-23.7c1-7.4,1.1-7.4,8.5-6
		c3.7,0.7,5.9,0.1,5.5-4.3c-0.2-1.6,0.3-3.4-0.1-5c-0.3-1.1-1.6-2.5-2.6-2.7c-9.5-1.1-19.1-2-29.2-3c-0.9,3.9-1.9,7.6-2.9,11.8
		c2.3,0.2,3.7,0.4,5.2,0.4c4.2-0.2,5.5,1,4.5,5.5C245.1,143.6,243.4,154.2,241.2,165.8z M134.2,214.1c4.5-7.7,8.9-15.1,13.4-22.9
		c-3.2-2.2-6.3-4.3-9.5-6.4c-2.7,4-5.1,7.5-8.1,11.8c-8.7-8-16.9-15.7-25.6-23.7c-2.2,3.8-4.2,7.2-6.3,10.6
		C110.5,193.8,122.2,203.9,134.2,214.1z M90.6,191.7c-0.9,2.2-1.6,4.4-2.7,6.3c-2.1,3.6-1.4,5.7,2.4,7.8c11,6.2,21.8,12.9,32.6,19.4
		c1.2,0.7,2.5,1.2,3.8,1.8c4-10.4,4-10.4-5.1-15.5c-1-0.6-2-1.2-3-1.8C109.4,203.8,100.2,197.9,90.6,191.7z"/>
	<path class="st1" d="M196.2,234.6c0.1-11.2,9.8-19.6,22.6-19.6c10,0,19.1,9.3,18.9,19.3c-0.2,11.1-9.8,20.3-21.1,20.3
		C204.8,254.5,196.1,246,196.2,234.6z"/>
	<path class="st1" d="M178.7,152.6c-3,2.2-5.7,4.2-8.8,6.4c-1.3-2.9-2.4-5.4-3.7-8.1c5.9-4.3,11.5-8.4,17.1-12.5
		c11.5,12.1,5.4,34.6-10.3,38.7c-6.4,1.7-14.5-1.9-19.2-8.8c-6.1-9-8.1-18.8-5.3-29.4c3.2-11.7,15.6-17.2,25-10.8
		c-0.5,1.8-0.6,3.9-1.5,5.5c-0.8,1.4-2.6,3-4,3c-4.2,0.1-6.6,2.3-7.9,5.8c-2.6,6.6-2.1,13.1,1.9,19c3.2,4.7,7.1,6,11.5,3.9
		C178.3,162.9,180.1,158.8,178.7,152.6z"/>
	<path class="st1" d="M345,177.4c-0.2,15-16.5,29.6-31.6,28.2c-9.3-0.9-15-8.2-14-18.2c1.3-14,18.6-27.5,32.5-25.4
		C340.2,163.3,345.1,169,345,177.4z M318,194.4c6,0,15.4-9.7,15.1-15.8c-0.2-3.3-2.2-5-5.6-4.9c-5.6,0.2-14.2,6.5-15.9,12
		C310,190.1,313.2,194.4,318,194.4z"/>
	<path class="st1" d="M155.3,317.5c0.4,4.3,0.5,8.6,1.3,12.8c0.7,4.3-0.4,6.7-5,7.1c-2.1,0.2-4.2,0.8-7.2,1.3
		c-0.5-7.1-0.9-13.9-1.4-20.7c-0.3-0.2-0.6-0.3-0.9-0.5c-1.6,2.7-3.7,5.3-4.8,8.2c-1.8,4.8-4.6,5.4-8.8,3.3
		c-1.2-0.6-2.5-0.8-4.4-1.4c1.1-1.8,1.9-3.3,2.8-4.8c6.7-11.1,13.4-22.2,20-33.4c1.5-2.6,2.8-3.8,5.9-2.4c4.2,1.9,8.7,3.3,12.9,5.3
		c10.8,5.3,8.7,16,0.1,21.1C162.8,315.3,159.3,316,155.3,317.5z M148.8,306.7c0.2,0.4,0.4,0.8,0.6,1.2c2.7-0.5,5.6-0.7,8.2-1.6
		c1.1-0.4,2.7-2.5,2.4-3c-0.7-1.4-2.1-2.8-3.6-3.5c-1-0.4-3,0-3.7,0.8C151.2,302.4,150.1,304.7,148.8,306.7z"/>
	<path class="st1" d="M222.7,162.6c-3.9-1.5-1.1-7.9-7.3-7.1c-6.6,0.7-6.7,5.2-6.6,10.2c-4.4-0.5-8.2-0.9-12.6-1.4
		c0.4-3.9,0.8-7.6,1.2-11.4c1-10.7,2-21.5,2.8-32.2c0.2-2.8,1-4.1,3.9-4.7c4-0.8,8-2.1,11.9-3.1c5.7,15.4,11.3,30.4,17.1,45.9
		C229.4,160.1,225.8,161.4,222.7,162.6z M211,131c-0.4,0.1-0.9,0.1-1.3,0.2c-0.3,5.2-0.6,10.4-1,16.2c2.7-0.3,4.5-0.5,7-0.7
		C214,141,212.5,136,211,131z"/>
	<path class="st1" d="M202.7,321.4c-0.7,10-3.4,18.5-10.1,25.1c-4.7,4.7-10.1,7.6-17,5.1c-6.7-2.4-9.3-8.1-10.1-14.2
		c-1.5-11.3,1.7-21.5,9.9-29.6c9.6-9.6,21.9-6.4,25.9,6.6C202,317,202.4,319.6,202.7,321.4z M191.8,326c-0.6-3.4-0.6-5.4-1.2-7.2
		c-1.5-4.3-4.9-5.3-8-2.1c-4.5,4.6-7.8,10.2-6.7,16.9c0.4,2.4,3,5.3,5.3,6.1c1.6,0.6,5.4-1.2,6.4-2.9
		C189.8,333.2,190.7,328.9,191.8,326z"/>
	<path class="st1" d="M307,304.4c-0.1,9.4-7.2,15.6-16.4,14.1c-13.5-2.2-26-16.2-26.5-29.9c-0.4-10.6,7.3-17.2,17.7-15.1
		C295.4,276.3,307.1,290.6,307,304.4z M296.3,300.5c0-5.8-10.3-15.8-16.3-15.5c-3.2,0.2-4.6,2.2-4.4,5.4c0.3,5.7,7.1,14.5,12.6,16.1
		C292.3,307.8,296.3,304.8,296.3,300.5z"/>
	<path class="st1" d="M211.1,355.5c0.9-4,1.6-7.4,2.1-9.6c4.8-1.5,8.8-2.6,12.7-4.2c0.9-0.4,1.3-2.1,1.9-3.2
		c-1.2-0.6-2.5-1.9-3.6-1.8c-3.4,0.5-6.8,1.5-10.2,2.3c-6.9,1.7-11.9-2.5-10.5-9.4c1.9-9.3,6.7-17,14.1-22.9
		c3.1-2.5,7.4-4.3,10.5-1.4c2.8,2.6,4.4,6.8,5.5,10.6c0.8,2.7-6.8,5.6-10.1,4.7c-2-0.5-4.6,0.1-6.4,1.2c-1.1,0.7-1.6,3.3-1.3,4.8
		c0.1,0.8,2.7,1.5,4.1,1.5c3.5-0.2,6.9-1.1,10.4-1.2c5.4-0.2,8.3,2.8,8.4,8.2c0.1,9.4-11.1,21.1-20.5,21.3
		C216,356.6,213.7,355.9,211.1,355.5z"/>
	<path class="st1" d="M261.7,302c-3,3.3-4.1,8.3-10.1,7.7c-1-0.1-2.9,2.9-3.5,4.8c-0.4,1.2,0.8,4.1,1.5,4.2c1.7,0.2,3.8-0.4,5.3-1.3
		c2.4-1.4,4.4-3.6,6.8-5c5.2-2.9,9.8-1.1,12.1,4.3c3.3,7.9-0.3,21.3-7.1,26.4c-6,4.5-8.7,3.6-10.4-3.5c-0.3-1.3-0.6-2.6-0.6-2.9
		c3.5-3.3,6.6-6,9.4-9.1c0.7-0.8,0.2-2.6,0.2-4c-1.3,0-3-0.4-4,0.2c-2.6,1.8-4.9,4-7.3,6c-6.2,5.4-12.6,3.4-14.6-4.6
		c-2-7.8-1-15.6,1.6-23c3.8-10.6,11.2-11.8,18.5-3.2C260.2,299.9,260.8,300.8,261.7,302z"/>
	<path class="st1" d="M290.7,141.7c-3.6-1.7-6.4-3-9.7-4.6c2.3-3.5,4.3-6.6,6.6-10.1c9.8,4.4,19.2,8.7,29.3,13.3
		c-1.5,3.9-2.8,7.5-4.3,11.5c-3.9-1.8-7.2-3.3-11.4-5.3c-5.4,10.6-10.7,21.1-16.3,32.1c-4-1.3-8.2-2.6-12.9-4.1
		C278.4,163.3,284.4,152.8,290.7,141.7z"/>
	<path class="st1" d="M241.2,165.8c2.2-11.5,3.9-22.2,6.3-32.6c1-4.5-0.3-5.8-4.5-5.5c-1.4,0.1-2.9-0.2-5.2-0.4c1-4.2,2-8,2.9-11.8
		c10.1,1,19.7,1.9,29.2,3c1,0.1,2.3,1.6,2.6,2.7c0.4,1.5,0,3.3,0.1,5c0.5,4.4-1.8,5-5.5,4.3c-7.4-1.4-7.5-1.3-8.5,6
		c-1.1,7.9-2.2,15.8-3,23.7c-0.4,3.4-1.6,5.1-5.3,5C247.7,165,244.9,165.5,241.2,165.8z"/>
	<path class="st1" d="M134.2,214.1c-12-10.2-23.7-20.2-35.9-30.6c2-3.5,4-6.8,6.3-10.6c8.7,8,16.9,15.7,25.6,23.7
		c2.9-4.3,5.3-7.8,8.1-11.8c3.2,2.2,6.3,4.3,9.5,6.4C143.1,198.9,138.7,206.3,134.2,214.1z"/>
	<path class="st1" d="M90.6,191.7c9.6,6.2,18.8,12.1,28,18c1,0.6,2,1.2,3,1.8c9.1,5.1,9.1,5.1,5.1,15.5c-1.3-0.6-2.6-1.1-3.8-1.8
		c-10.9-6.5-21.6-13.2-32.6-19.4c-3.8-2.2-4.5-4.2-2.4-7.8C89,196.1,89.7,193.9,90.6,191.7z"/>
	<path class="st0" d="M318,194.4c-4.8,0-7.9-4.3-6.5-8.8c1.8-5.4,10.3-11.8,15.9-12c3.4-0.1,5.5,1.6,5.6,4.9
		C333.4,184.7,324,194.4,318,194.4z"/>
	<path class="st0" d="M148.8,306.7c1.3-2,2.3-4.3,3.9-6c0.7-0.8,2.7-1.3,3.7-0.8c1.5,0.7,2.9,2,3.6,3.5c0.3,0.5-1.3,2.7-2.4,3
		c-2.6,0.9-5.5,1.1-8.2,1.6C149.2,307.5,149,307.1,148.8,306.7z"/>
	<path class="st0" d="M211,131c1.5,5,3,10,4.7,15.7c-2.5,0.3-4.3,0.4-7,0.7c0.4-5.8,0.7-11,1-16.2C210.2,131.1,210.6,131.1,211,131z
		"/>
	<path class="st0" d="M191.8,326c-1.1,2.9-2,7.1-4.1,10.7c-1.1,1.8-4.8,3.6-6.4,2.9c-2.3-0.8-4.9-3.7-5.3-6.1
		c-1.2-6.7,2.2-12.2,6.7-16.9c3.1-3.2,6.5-2.2,8,2.1C191.2,320.6,191.2,322.6,191.8,326z"/>
	<path class="st0" d="M296.3,300.5c0,4.3-4,7.3-8.1,6.1c-5.5-1.6-12.2-10.4-12.6-16.1c-0.2-3.2,1.2-5.2,4.4-5.4
		C286,284.7,296.3,294.7,296.3,300.5z"/>
</g>
</svg>
